<svg xmlns="http://www.w3.org/2000/svg" xmlns:xlink="http://www.w3.org/1999/xlink" viewBox="0 0 500 500"><defs><clipPath id="freepik--clip-path--inject-28"><path d="M156.25,170.76l15.41,23L202,190.91v6.16s-28.69,9.73-32.25,10.67-21.1-11.14-21.1-11.14S146.53,179.29,156.25,170.76Z" style="fill:#fff"></path></clipPath><clipPath id="freepik--clip-path-2--inject-28"><path d="M143,156.06l-6.64,3.31c-1.42.72-30.59,9-31.77,10.67s-11.38,38.18-11.38,38.18l6.64,1.9L114,183.8s35.57-7.59,37.7-8.3,4.74-3.8,5.22-6.64" style="fill:#fff"></path></clipPath><clipPath id="freepik--clip-path-3--inject-28"><path d="M113.44,224.37l.75,42.25L89.44,312.37l4.5,3s35.25-38.25,36.5-41.75,8.5-35,8.5-35,2.5-10.25-1.75-15.75S118.69,213.12,113.44,224.37Z" style="fill:#263238"></path></clipPath><clipPath id="freepik--clip-path-4--inject-28"><path d="M115.69,206.12s-.16.46-.4,1.25c-1.17,3.71-4.38,14.63-3.35,18.75,1.25,5,11.94,15.88,17.75,21.7,5.45,5.45,22.75,13.55,22.75,13.55s-7.5,20-9.25,24.75-8,21.5-8,21.5l5,3s20.75-28.75,25-34.5,9.27-14.15,7.75-16.75c-13.61-23.17-29.75-35.75-29.75-35.75l1.75-6.75Z" style="fill:#263238"></path></clipPath><clipPath id="freepik--clip-path-5--inject-28"><path d="M147.25,150.3a25.9,25.9,0,0,0-12.66,6.25c-5.3,5.13-8.82,12.35-9.14,15.72s-4.87,19.58-6.58,22.93-5.63,9.07-3.05,12.34c1.3,1.64,27.26,10.26,29.83,10.26s3.37-2.4,3.69-3.84,3.52-14.6,6.09-19.41,8.34-8,9-19.24a32.66,32.66,0,0,0-4.65-18.92S152.22,150.14,147.25,150.3Z" style="fill:#fff"></path></clipPath><clipPath id="freepik--clip-path-6--inject-28"><path d="M167.14,120.63s4,4.65,4,5.46.16,1.92.16,2.4,5.62,3,5.62,4-3.69,3.21-3.69,3.21v9c0,1.76-1,2.24-2.73,2.88s-5.93-.16-5.93-.16l-4.81,9-10.74-8,3-6.57-1-1.92s-5.29-3-4.17-8,5.29-5.61,6.58-7.54,3.36-6.25,5.29-6.89S167.14,120.63,167.14,120.63Z" style="fill:#fff"></path></clipPath><clipPath id="freepik--clip-path-7--inject-28"><path d="M169.35,208.29c-4.47,0-19.24-10.08-21-11.28a.51.51,0,0,1-.22-.35c-.08-.72-2-17.67,7.76-26.28a.49.49,0,0,1,.74.1l15.25,22.75L202,190.41a.52.52,0,0,1,.39.13.51.51,0,0,1,.16.37v6.16a.51.51,0,0,1-.34.48c-1.17.4-28.75,9.74-32.28,10.68A2.23,2.23,0,0,1,169.35,208.29Zm-20.22-12c7,4.8,18.08,11.58,20.5,10.94,3.29-.88,28.63-9.45,31.88-10.54v-5.26l-29.8,2.79a.49.49,0,0,1-.47-.22l-15.09-22.51C147.79,179.38,148.94,194.33,149.13,196.32Z" style="fill:#263238;clip-path:url(#freepik--clip-path--inject-28)"></path></clipPath><clipPath id="freepik--clip-path-8--inject-28"><path d="M93.94,315.87a.57.57,0,0,1-.28-.08l-4.5-3a.52.52,0,0,1-.16-.66l24.69-45.63-.75-42.12a.54.54,0,0,1,0-.22,12,12,0,0,1,9.93-7.27c5.93-.66,12.12,2.37,14.67,5.67,4.35,5.63,1.95,15.75,1.84,16.18-.29,1.28-7.27,31.56-8.51,35.05s-35.16,40.35-36.6,41.92A.5.5,0,0,1,93.94,315.87Zm-3.85-3.66,3.77,2.51c10-10.85,35.12-38.5,36.11-41.27,1.22-3.43,8.41-34.63,8.48-34.94,0-.11,2.39-10.09-1.66-15.33-2.33-3-8.26-5.91-13.77-5.3a11,11,0,0,0-9.08,6.6l.75,42.13a.54.54,0,0,1-.06.25Z" style="fill:#263238;clip-path:url(#freepik--clip-path-3--inject-28)"></path></clipPath><clipPath id="freepik--clip-path-9--inject-28"><path d="M140.19,311.12a.48.48,0,0,1-.26-.07l-5-3a.49.49,0,0,1-.21-.6s6.25-16.75,8-21.5c1.59-4.31,8-21.38,9.09-24.32-2.74-1.3-17.43-8.42-22.47-13.46-7.7-7.7-16.69-17.15-17.89-21.93-1-4.17,2-14.69,3.36-19l.4-1.26a.53.53,0,0,1,.26-.29.48.48,0,0,1,.39,0l29.25,10.75a.5.5,0,0,1,.31.6l-1.67,6.43a139.74,139.74,0,0,1,29.62,35.69c2.11,3.59-6.11,15-7.78,17.3-4.2,5.68-24.79,34.21-25,34.49A.48.48,0,0,1,140.19,311.12Zm-4.39-3.71,4.25,2.55c2.45-3.4,20.8-28.81,24.74-34.14,4.77-6.45,9-14.09,7.72-16.2C159.1,236.8,143,224.14,142.88,224a.49.49,0,0,1-.18-.52l1.64-6.31L116,206.77q-.09.3-.24.75c-1,3.32-4.35,14.44-3.34,18.48,1.28,5.12,13.16,17,17.62,21.46,5.33,5.33,22.44,13.38,22.61,13.46a.5.5,0,0,1,.26.63c-.08.2-7.52,20.05-9.25,24.74C142.06,290.61,136.75,304.86,135.8,307.41Z" style="fill:#263238;clip-path:url(#freepik--clip-path-4--inject-28)"></path></clipPath><clipPath id="freepik--clip-path-10--inject-28"><path d="M145.65,218.3c-2.52,0-28.73-8.56-30.22-10.45-2.41-3.06.23-7.83,2.15-11.32.32-.57.61-1.09.85-1.56,1.68-3.29,6.21-19.51,6.52-22.75.35-3.74,4.17-11.07,9.29-16a26.2,26.2,0,0,1,12.94-6.39h.06c5.11-.18,12.53,5.95,12.84,6.21a.43.43,0,0,1,.09.1,32.85,32.85,0,0,1,4.74,19.23c-.47,8.24-3.74,12.34-6.36,15.64a26.5,26.5,0,0,0-2.68,3.81c-2.46,4.62-5.57,17.16-6,19.27C149.2,216.88,147.79,218.3,145.65,218.3Zm1.65-67.5c-.5.08-7.42,1.31-12.37,6.11-5.4,5.24-8.69,12.32-9,15.4-.32,3.4-4.85,19.66-6.62,23.11-.25.48-.54,1-.86,1.59-1.79,3.24-4.24,7.69-2.24,10.22,1.11,1.32,26.69,10.07,29.43,10.07,1.64,0,2.68-1.13,3.2-3.45.47-2.14,3.62-14.82,6.14-19.53a26.59,26.59,0,0,1,2.78-4c2.67-3.35,5.69-7.16,6.14-15.08a32.56,32.56,0,0,0-4.52-18.55C158.7,156.17,151.81,150.63,147.3,150.8Z" style="fill:#263238;clip-path:url(#freepik--clip-path-5--inject-28)"></path></clipPath><clipPath id="freepik--clip-path-11--inject-28"><path d="M159.76,156.89a.47.47,0,0,1-.3-.1l-10.74-8a.5.5,0,0,1-.16-.61l2.95-6.35-.79-1.58c-.85-.54-5.36-3.68-4.28-8.48.8-3.5,3-5,4.75-6.13a6.7,6.7,0,0,0,1.9-1.58c.3-.44.64-1,1-1.65,1.29-2.18,2.89-4.89,4.54-5.44,2-.67,7.65,2.59,8.75,3.26a.29.29,0,0,1,.12.1c1.55,1.79,4.13,4.92,4.13,5.78,0,.42.05,1,.1,1.44,0,.31,0,.59.06.8a19.77,19.77,0,0,0,1.85,1.14c2.56,1.48,3.77,2.26,3.77,3,0,1-2.21,2.57-3.69,3.49v8.7c0,2.08-1.21,2.68-3.06,3.35-1.57.57-4.75.11-5.83-.07l-4.64,8.66a.49.49,0,0,1-.33.25Zm-10.12-8.67,10,7.42,4.54-8.46a.49.49,0,0,1,.53-.26c1.13.22,4.33.67,5.67.18,1.74-.63,2.4-1,2.4-2.41v-9a.5.5,0,0,1,.24-.43c1.76-1.07,3.38-2.38,3.45-2.79a18.4,18.4,0,0,0-3.27-2.16c-1.9-1.09-2.35-1.37-2.35-1.84,0-.2,0-.51-.06-.87s-.1-1.06-.1-1.53a32.07,32.07,0,0,0-3.83-5.07c-2.42-1.44-6.62-3.53-7.85-3.12s-2.86,3.07-4,5c-.38.65-.73,1.24-1,1.7a7.34,7.34,0,0,1-2.17,1.85c-1.7,1.13-3.63,2.41-4.33,5.52-1,4.56,3.88,7.44,3.93,7.47a.51.51,0,0,1,.2.21l1,1.93a.5.5,0,0,1,0,.43Zm22.16-19.73h0Zm-.06-.22Z" style="fill:#263238;clip-path:url(#freepik--clip-path-6--inject-28)"></path></clipPath><clipPath id="freepik--clip-path-12--inject-28"><path d="M99.82,210.62l-.14,0L93,208.7a.49.49,0,0,1-.34-.62c1-3.74,10.25-36.64,11.45-38.33.77-1.07,8.73-3.66,24.13-8.35,4-1.22,7.41-2.27,7.83-2.47l6.64-3.32a.49.49,0,0,1,.67.22.5.5,0,0,1-.23.67l-6.64,3.32c-.46.23-3.05,1-8,2.53-7.92,2.42-22.66,6.92-23.61,8s-7.08,22.9-11.17,37.53l5.78,1.65,14-26a.49.49,0,0,1,.34-.25c.35-.08,35.56-7.59,37.64-8.29,1.88-.62,4.43-3.49,4.89-6.24a.48.48,0,0,1,.57-.41.49.49,0,0,1,.41.57c-.48,2.87-3.12,6.22-5.55,7-2.07.69-34.22,7.56-37.53,8.27l-14.11,26.11A.5.5,0,0,1,99.82,210.62Z" style="fill:#263238;clip-path:url(#freepik--clip-path-2--inject-28)"></path></clipPath></defs><g id="freepik--background-simple--inject-28"><path d="M277.92,56.23S213,42.1,156.43,85.1,78,201.87,58.75,261.2s3.19,114.28,53.08,134.25,76.67-22.32,141.77-32.56,83.87-3.15,133.37-47,48.17-132.25-2.83-191.26S277.92,56.23,277.92,56.23Z" style="fill:#407BFF"></path><path d="M277.92,56.23S213,42.1,156.43,85.1,78,201.87,58.75,261.2s3.19,114.28,53.08,134.25,76.67-22.32,141.77-32.56,83.87-3.15,133.37-47,48.17-132.25-2.83-191.26S277.92,56.23,277.92,56.23Z" style="fill:#fff;opacity:0.7000000000000001"></path></g><g id="freepik--Sunburst--inject-28"><path d="M399.63,145.84c-.33-.54-.67-1.09-1-1.62L196.45,63.42a149.16,149.16,0,0,0-20.61,9.18Z" style="fill:#fff"></path><path d="M402.43,150.58l-.56-1-277.37-33c-4.63,5.81-8.93,11.86-13,18.1Z" style="fill:#fff"></path><path d="M406.84,158.94,108.34,394c1.15.52,2.31,1,3.49,1.48a68.6,68.6,0,0,0,26.49,5.29L407.2,159.66Z" style="fill:#fff"></path><path d="M393.24,136.19c-1.21-1.69-2.47-3.36-3.75-5L296.67,61.78a114.28,114.28,0,0,0-18.75-5.55s-3.41-.74-9.33-1.36Z" style="fill:#fff"></path><path d="M404.27,153.92c-.13-.25-.27-.5-.41-.75L79.61,200c-3.06,8-5.93,16.07-8.64,24Z" style="fill:#fff"></path><path d="M411,168.08c-.21-.49-.41-1-.62-1.48l-72.6,181.68a113.65,113.65,0,0,0,16.92-8.16Z" style="fill:#fff"></path><path d="M415,178.65c-.42-1.25-.86-2.49-1.32-3.73L398.32,304A104.1,104.1,0,0,0,409,287.8Z" style="fill:#fff"></path><path d="M405.77,156.78l-.36-.68L52,307.7A109.52,109.52,0,0,0,56.2,334Z" style="fill:#fff"></path><path d="M408.82,163.09c-.14-.31-.29-.62-.43-.92L258.93,362.08c8-1.2,15.28-2.14,22-3Z" style="fill:#fff"></path></g><g id="freepik--Charts--inject-28"><rect x="70" y="334.24" width="36" height="107.76" style="fill:#263238"></rect><rect x="70" y="334.24" width="36" height="107.76" style="fill:#fff;opacity:0.17"></rect><path d="M106,410.49a168.56,168.56,0,0,0-36,14.26V442h36Z" style="opacity:0.2"></path><rect x="124" y="324.92" width="36" height="117.08" style="fill:#407BFF"></rect><path d="M158.25,403.74A205.68,205.68,0,0,0,124,406.56V442h36V403.74Z" style="opacity:0.2"></path><rect x="178" y="297.67" width="36" height="144.33" style="fill:#263238"></rect><rect x="178" y="297.67" width="36" height="144.33" style="fill:#fff;opacity:0.17"></rect><path d="M214,407c-10.95-1.12-22.73-2.22-36-2.81V442h36Z" style="opacity:0.2"></path><rect x="232" y="312.01" width="36" height="129.99" style="fill:#407BFF"></rect><path d="M268,410.35a266.26,266.26,0,0,1-36-1.52V442h36Z" style="opacity:0.2"></path><rect x="286" y="235.99" width="36" height="206.01" style="fill:#263238"></rect><rect x="286" y="235.99" width="36" height="206.01" style="fill:#fff;opacity:0.17"></rect><path d="M322,399.42a187.3,187.3,0,0,1-36,9.26V442h36Z" style="opacity:0.2"></path><rect x="398" y="197.99" width="36" height="244.01" style="fill:#263238"></rect><rect x="398" y="197.99" width="36" height="244.01" style="fill:#fff;opacity:0.17"></rect><path d="M434,360.79a188,188,0,0,1-36,9.26V442h36Z" style="opacity:0.2"></path><rect x="340" y="206.94" width="36" height="235.06" style="fill:#407BFF"></rect><path d="M340,392.58V442h36V377.92C364.49,382.78,352.34,387.76,340,392.58Z" style="opacity:0.2"></path><path d="M458,442.5H47a.5.5,0,0,1,0-1H458a.5.5,0,0,1,0,1Z" style="fill:#263238"></path></g></svg>